<svg height="512pt" viewBox="-104 0 512 512" width="512pt" xmlns="http://www.w3.org/2000/svg" class="tap-card--image" alt="Pint of Beer">

<!-- Pint Outline  -->
<path d="m268.722656 355.484375c28.511719-95.734375 34.449219-184.25 34.410156-241.644531 0-.085938 0-.167969-.003906-.25l-.472656-27.238282c0-.085937-.003906-.175781-.007812-.261718-.085938-2.558594-.1875-5.054688-.292969-7.488282-1.476563-33.308593-4.644531-55.226562-5.941407-63.109374l-.480468-2.929688c-1.195313-7.246094-7.457032-12.5625-14.800782-12.5625h-259.125c-7.332031 0-13.589843 5.300781-14.796874 12.53125l-.492188 2.953125c-1.296875 7.855469-4.472656 29.726563-5.941406 63.121094-.105469 2.457031-.207032 4.96875-.292969 7.550781-.003906.085938-.007813.167969-.007813.253906l-.47265575 27.230469c-.00390625.082031-.00390625.167969-.00390625.25-.0351562 57.390625 5.90625 145.890625 34.414062 241.59375 10.34375 34.710937 15.886719 65.429687 16.472657 91.300781.410156 17.941406-1.539063 33.164063-5.785157 45.238282-1.613281 4.589843-.902343 9.675781 1.910157 13.648437 2.8125 3.96875 7.375 6.328125 12.242187 6.328125h184.632813c4.863281 0 9.425781-2.359375 12.238281-6.332031 2.8125-3.96875 3.523438-9.058594 1.910156-13.648438-4.246094-12.070312-6.195312-27.289062-5.785156-45.234375.585938-25.863281 6.128906-56.585937 16.472656-91.300781zm-28.753906-8.566406c-11.101562 37.277343-17.0625 70.648437-17.710938 99.1875-.003906.117187-.003906.226562-.003906.339843h-141.371094c0-.113281 0-.222656-.003906-.339843-.648437-28.542969-6.605468-61.917969-17.714844-99.1875-27.453124-92.160157-33.191406-177.488281-33.164062-232.882813l.46875-26.976562c.085938-2.4375.179688-4.8125.28125-7.132813.992188-22.574219 2.773438-39.4375 4.15625-49.925781h233.3125c1.382812 10.519531 3.164062 27.398438 4.164062 49.929688.101563 2.304687.195313 4.65625.28125 7.074218l.46875 26.976563c.03125 55.402343-5.703124 140.746093-33.164062 232.9375zm0 0"/>

</svg>